<?xml version="1.0" encoding="UTF-8" standalone="no"?>
<!DOCTYPE svg PUBLIC "-//W3C//DTD SVG 1.1//EN"
"http://www.w3.org/Graphics/SVG/1.1/DTD/svg11.dtd">
<svg viewBox="0 0 909 1286" version="1.1" xmlns="http://www.w3.org/2000/svg" xmlns:xlink="http://www.w3.org/1999/xlink">
<defs>
<clipPath id="c0_1"><path d="M508.9,228.6l0,-13l2.1,0l0,13Z" /></clipPath>
<clipPath id="c1_1"><path d="M720.3,228.6l0,-13l2.2,0l0,13Z" /></clipPath>
<style type="text/css"><![CDATA[
.g1_1{
fill: none;
stroke: #0000FF;
stroke-width: 0.6111111;
stroke-linecap: butt;
stroke-linejoin: miter;
}
.g2_1{
fill: none;
stroke: #0000FF;
stroke-width: 0.9166667;
stroke-linecap: butt;
stroke-linejoin: miter;
}
.g3_1{
fill: #808080;
}
]]></style>
</defs>
<path d="M342.5,227.2l168.8,0" class="g1_1" />
<g clip-path="url(#c0_1)">
<path d="M509.1,227.2l2.9,0" class="g1_1" />
</g>
<path d="M528.2,227.2l194.7,0" class="g1_1" />
<g clip-path="url(#c1_1)">
<path d="M720.5,227.2l2.9,0" class="g1_1" />
</g>
<path d="M269,1028.3l134.8,0" class="g2_1" />
<path fill-rule="evenodd" d="M125.4,264.8l643.2,0l0,1.2l-643.2,0l0,-1.2Z" class="g3_1" />
<path fill-rule="evenodd" d="M125.4,447.8l643.2,0l0,1.2l-643.2,0l0,-1.2Z" class="g3_1" />
<path fill-rule="evenodd" d="M125.4,533.8l643.2,0l0,1.2l-643.2,0l0,-1.2Z" class="g3_1" />
<path fill-rule="evenodd" d="M125.4,707.7l643.2,0l0,1.2l-643.2,0l0,-1.2Z" class="g3_1" />
<path fill-rule="evenodd" d="M125.4,1005.1l643.2,0l0,1.2l-643.2,0l0,-1.2Z" class="g3_1" />
</svg>